Coordinates
version=1
nRows=16
nColumns=42
inDegrees=yes

Units are S.I. units (second, meters, Newtons, ...)
If the header above contains a line with 'inDegrees', this indicates whether rotational values are in degrees (yes) or radians (no).

endheader
time	pelvis_tilt	pelvis_list	pelvis_rotation	pelvis_tx	pelvis_ty	pelvis_tz	hip_flexion_r	hip_adduction_r	hip_rotation_r	knee_angle_r	knee_adduction_r	knee_angle_r_beta	ankle_angle_r	subtalar_angle_r	mtp_angle_r	hip_flexion_l	hip_adduction_l	hip_rotation_l	knee_angle_l	knee_adduction_l	knee_angle_l_beta	ankle_angle_l	subtalar_angle_l	mtp_angle_l	lumbar_extension	lumbar_bending	lumbar_rotation	arm_flex_r	arm_add_r	arm_rot_r	elbow_flex_r	pro_sup_r	wrist_flex_r	wrist_dev_r	arm_flex_l	arm_add_l	arm_rot_l	elbow_flex_l	pro_sup_l	wrist_flex_l	wrist_dev_l
      0.30000000	     17.65776715	      3.65254018	      5.56816268	     -1.55574880	      0.89394876	     -0.01860785	      6.20914870	     -1.21117215	    -19.50521081	     31.47590231	     -5.72836207	      0.54935813	     13.69021350	      3.96989687	     -9.58180195	    -24.87553785	     -1.39179531	     -1.95188278	     45.09001554	      1.43862238	      0.78696923	      0.59025205	     -5.78474122	     -9.58180195	    -38.95278317	     -0.70833461	     -3.29610456	      1.79068731	     -5.82980020	    -35.14720293	     27.79480943	     90.00000001	      0.00000000	      0.00000000	      7.93650115	     -8.04398607	    -31.33113561	     37.81420486	     90.00000001	      0.00000000	      0.00000000
      0.31000000	     17.78024133	      3.56295758	      5.42295667	     -1.54727261	      0.89503355	     -0.01751336	      5.47625671	     -0.94765008	    -20.27916195	     31.36245320	     -6.13719402	      0.54737807	     14.47296910	      5.18546386	     -9.42697418	    -23.77634469	     -1.41418660	     -0.90712809	     47.51586785	      1.92674454	      0.82930834	     -0.36876952	     -8.40500732	     -9.42697418	    -39.08988362	     -0.63860467	     -3.30853646	      2.04120655	     -5.95659503	    -34.15010108	     28.31712172	     90.00000001	      0.00000000	      0.00000000	      7.70917174	     -7.94227861	    -31.43419629	     37.67228251	     90.00000001	      0.00000000	      0.00000000
      0.32000000	     17.87250547	      3.36814733	      5.31425174	     -1.53903741	      0.89602846	     -0.01645329	      4.70005760	     -0.54403433	    -20.56254622	     31.10818523	     -6.26377596	      0.54294026	     15.15401503	      5.63844834	     -9.37731930	    -22.47557839	     -1.56045881	     -0.47936540	     50.03213277	      2.03319233	      0.87322545	     -0.48299407	     -9.85740698	     -9.37731930	    -39.20817457	     -0.45487604	     -3.26462154	      2.42382929	     -6.05901300	    -33.68525372	     28.77205884	     90.00000001	      0.00000000	      0.00000000	      7.50044627	     -7.83122157	    -31.41650235	     37.52642782	     90.00000001	      0.00000000	      0.00000000
      0.33000000	     17.87486080	      3.23463726	      5.23111852	     -1.53106980	      0.89685982	     -0.01539042	      4.10436466	     -0.21185229	    -21.01845158	     30.95722510	     -6.55972838	      0.54030551	     15.75247008	      6.41418221	     -9.30300555	    -21.00856860	     -1.65045028	      0.31725258	     52.48755435	      2.45726735	      0.91608064	     -0.78013416	    -12.31280613	     -9.30300555	    -39.26068736	     -0.36290754	     -3.21743555	      2.73158250	     -6.18916765	    -32.68707879	     29.24891972	     90.00000001	      0.00000000	      0.00000000	      7.40361541	     -7.72450262	    -31.42397200	     37.35248082	     90.00000001	      0.00000000	      0.00000000
      0.34000000	     17.91711379	      3.17630580	      5.16253004	     -1.52335198	      0.89780005	     -0.01452430	      3.41268487	     -0.01470050	    -21.20696467	     30.77978132	     -6.60337307	      0.53720853	     16.39450776	      6.90192258	     -9.23167637	    -19.52732481	     -1.60703903	      0.69886700	     54.75395552	      2.50202683	      0.95563680	     -0.63010094	    -14.14290720	     -9.23167637	    -39.40008644	     -0.28984396	     -3.21463486	      3.11220425	     -6.32592046	    -31.75804078	     29.75429877	     90.00000001	      0.00000000	      0.00000000	      7.31728801	     -7.60459105	    -31.36299298	     37.21010535	     90.00000001	      0.00000000	      0.00000000
      0.35000000	     18.24344242	      3.32849805	      4.94109012	     -1.51560693	      0.89930686	     -0.01348521	      2.36509740	     -0.04762636	    -21.12792501	     30.59421941	     -6.50926249	      0.53396986	     16.72431782	      7.00230549	     -9.21200696	    -18.48409571	     -1.25033336	      0.59234081	     56.54849273	      2.13361301	      0.98695739	      0.12333559	    -14.80642774	     -9.21200696	    -39.87145807	     -0.52251086	     -3.16687768	      3.60467275	     -6.37724917	    -31.47958802	     30.09097796	     90.00000001	      0.00000000	      0.00000000	      7.31082328	     -7.53934610	    -31.28456270	     37.13067880	     90.00000001	      0.00000000	      0.00000000
      0.36000000	     18.06601713	      3.03009720	      5.03445233	     -1.50818540	      0.89969649	     -0.01282169	      1.88752884	      0.42863660	    -21.02559442	     30.29678163	     -6.38675906	      0.52877859	     17.46322644	      7.18558785	     -9.17127947	    -16.53619534	     -1.53818780	      0.46253494	     58.78410695	      1.83757824	      1.02597621	      0.92232245	    -16.21513597	     -9.17127947	    -39.75035055	     -0.18051320	     -3.12860723	      4.01367490	     -6.53631511	    -30.52534824	     30.63366717	     90.00000001	      0.00000000	      0.00000000	      7.25577275	     -7.40182372	    -31.12111997	     36.95049539	     90.00000001	      0.00000000	      0.00000000
      0.37000000	     18.16701695	      3.08067756	      4.97254698	     -1.50084136	      0.90076406	     -0.01209730	      1.07381728	      0.47891495	    -20.90441057	     30.02333185	     -6.22163529	      0.52400599	     17.79859371	      7.23118671	     -9.14695324	    -15.07294778	     -1.30013825	      0.21193816	     60.38851158	      1.29745307	      1.05397836	      1.98066281	    -16.96922149	     -9.14695324	    -39.98550739	     -0.24281892	     -3.09844078	      4.51293305	     -6.62200155	    -29.96216437	     31.02293324	     90.00000001	      0.00000000	      0.00000000	      7.30031572	     -7.28611064	    -30.98116474	     36.84546173	     90.00000001	      0.00000000	      0.00000000
      0.38000000	     18.16244119	      3.02478746	      4.90176817	     -1.49368517	      0.90153628	     -0.01132128	      0.42643112	      0.65920008	    -20.70787427	     29.77221571	     -6.07648867	      0.51962319	     18.22877435	      7.23819709	     -9.12037378	    -13.40535392	     -1.22584774	     -0.18201598	     61.92145824	      0.78340690	      1.08073332	      3.04871057	    -17.46267446	     -9.12037378	    -40.11132270	     -0.23515339	     -3.00930941	      5.01610746	     -6.76634336	    -29.23951663	     31.44787590	     90.00000001	      0.00000000	      0.00000000	      7.34721160	     -7.18574219	    -30.80458944	     36.73583704	     90.00000001	      0.00000000	      0.00000000
      0.39000000	     18.12042065	      2.98124629	      4.83025067	     -1.48663809	      0.90224241	     -0.01046114	     -0.16301012	      0.83993328	    -20.49605013	     29.52638936	     -5.96425308	      0.51533271	     18.60118714	      7.21699458	     -9.09458844	    -11.71307806	     -1.14817665	     -0.60671091	     63.18025570	      0.26242197	      1.10270348	      4.11607060	    -17.74085913	     -9.09458844	    -40.20504803	     -0.26098674	     -2.87342442	      5.51459795	     -6.84838745	    -28.47142057	     31.84569849	     90.00000001	      0.00000000	      0.00000000	      7.44105947	     -7.05747439	    -30.60479542	     36.64848935	     90.00000001	      0.00000000	      0.00000000
      0.40000000	     17.97411449	      2.82983367	      4.71417810	     -1.47976110	      0.90263878	     -0.00941294	     -0.58540728	      1.15917361	    -20.20879569	     29.31961298	     -5.87419508	      0.51172378	     19.01743863	      7.12597819	     -9.05796738	     -9.83453325	     -1.22283372	     -1.11069733	     64.35282537	     -0.20268126	      1.12316869	      5.21707017	    -17.73480113	     -9.05796738	    -40.19639854	     -0.25448358	     -2.65023022	      5.97884665	     -7.03701724	    -27.28050047	     32.29630376	     90.00000001	      0.00000000	      0.00000000	      7.53054857	     -6.97811427	    -30.34595842	     36.53723285	     90.00000001	      0.00000000	      0.00000000
      0.41000000	     17.84455500	      2.71959469	      4.54733160	     -1.47296597	      0.90304725	     -0.00840407	     -1.00538595	      1.43964856	    -19.92563629	     29.11681476	     -5.87346802	      0.50818429	     19.26305701	      6.89235806	     -8.99041464	     -8.02883529	     -1.23669569	     -1.46868273	     65.21569700	     -0.48806939	      1.13822864	      6.19112984	    -17.66065953	     -8.99041464	    -40.20753739	     -0.30853592	     -2.37542640	      6.35535521	     -7.33285377	    -25.50771478	     32.80614188	     90.00000001	      0.00000000	      0.00000000	      7.64089718	     -6.87772158	    -30.03957619	     36.48639938	     90.00000001	      0.00000000	      0.00000000
      0.42000000	     17.93692003	      2.84627423	      4.36686491	     -1.46612696	      0.90392220	     -0.00756360	     -1.72802185	      1.37646000	    -19.89119055	     28.91355774	     -5.82184727	      0.50463678	     19.40088662	      6.90964705	     -8.97382841	     -6.59553007	     -0.92821446	     -1.64636910	     65.63788395	     -0.70517004	      1.14559719	      6.71296076	    -17.57698260	     -8.97382841	    -40.46446268	     -0.57704304	     -2.19732863	      6.98071740	     -7.37311689	    -25.24294889	     33.10818560	     90.00000001	      0.00000000	      0.00000000	      7.80552261	     -6.75443763	    -29.91170243	     36.53755393	     90.00000001	      0.00000000	      0.00000000
      0.43000000	     17.79274283	      2.77013742	      4.33178928	     -1.45929405	      0.90433223	     -0.00697504	     -2.27118508	      1.53631514	    -19.70209246	     28.52828194	     -5.61614275	      0.49791245	     19.92392779	      7.04087917	     -8.94709441	     -4.87923095	     -0.74845018	     -1.81682858	     65.84900694	     -1.16947683	      1.14928198	      7.42948642	    -17.59740175	     -8.94709441	    -40.43124661	     -0.57359559	     -2.08815096	      7.58305784	     -7.49788602	    -24.50098757	     33.42039336	     90.00000001	      0.00000000	      0.00000000	      7.88195053	     -6.67008800	    -29.71032495	     36.43485092	     90.00000001	      0.00000000	      0.00000000
      0.44000000	     17.73164015	      2.79799915	      4.16424578	     -1.45255815	      0.90480699	     -0.00621031	     -2.81663702	      1.57928327	    -19.65888646	     28.26609751	     -5.60441758	      0.49333647	     20.18363855	      7.12269596	     -8.92660471	     -3.30885140	     -0.52822001	     -1.90216715	     65.83028669	     -1.28645953	      1.14895525	      7.86106983	    -17.36610004	     -8.92660471	    -40.52151049	     -0.75435119	     -1.84845614	      8.17794193	     -7.61516423	    -23.96132606	     33.71632798	     90.00000001	      0.00000000	      0.00000000	      8.03888019	     -6.54495455	    -29.54539679	     36.47189126	     90.00000001	      0.00000000	      0.00000000
      0.45000000	     17.60802919	      2.77110008	      4.02448691	     -1.44576230	      0.90510032	     -0.00547548	     -3.31580767	      1.67555113	    -19.60422912	     27.97940284	     -5.54407642	      0.48833270	     20.51824922	      7.24653251	     -8.90620848	     -1.73389742	     -0.33788555	     -1.86828179	     65.53697647	     -1.38541763	      1.14383602	      8.22964008	    -17.04837844	     -8.90620848	    -40.49687053	     -0.87990503	     -1.62821942	      8.78505037	     -7.71133780	    -23.34178072	     34.01080196	     90.00000001	      0.00000000	      0.00000000	      8.15462532	     -6.41603265	    -29.37703837	     36.48730444	     90.00000001	      0.00000000	      0.00000000
